<mxfile host="Electron" modified="2023-06-01T04:03:08.081Z" agent="Mozilla/5.0 (Windows NT 10.0; Win64; x64) AppleWebKit/537.36 (KHTML, like Gecko) draw.io/21.2.8 Chrome/112.0.5615.165 Electron/24.2.0 Safari/537.36" etag="XcLs-aOW43NP7qcCjiId" version="21.2.8" type="device">
  <diagram name="PÃ¡gina-1" id="wrU_UGe0JrBUqQ07glAL">
    <mxGraphModel dx="1154" dy="577" grid="1" gridSize="10" guides="1" tooltips="1" connect="1" arrows="1" fold="1" page="1" pageScale="1" pageWidth="827" pageHeight="1169" math="0" shadow="0">
      <root>
        <mxCell id="0" />
        <mxCell id="1" parent="0" />
        <mxCell id="xmXilH9d-zfMQuUzyqhX-10" value="cliente" style="verticalAlign=top;align=left;spacingTop=8;spacingLeft=2;spacingRight=12;shape=cube;size=10;direction=south;fontStyle=4;html=1;whiteSpace=wrap;" parent="1" vertex="1">
          <mxGeometry x="200" y="40" width="180" height="200" as="geometry" />
        </mxCell>
        <mxCell id="xmXilH9d-zfMQuUzyqhX-11" value="servidor web" style="verticalAlign=top;align=left;spacingTop=8;spacingLeft=2;spacingRight=12;shape=cube;size=10;direction=south;fontStyle=4;html=1;whiteSpace=wrap;" parent="1" vertex="1">
          <mxGeometry x="190" y="330" width="180" height="190" as="geometry" />
        </mxCell>
        <mxCell id="xmXilH9d-zfMQuUzyqhX-15" value="" style="endArrow=none;html=1;rounded=0;entryX=0;entryY=0;entryDx=200;entryDy=95;entryPerimeter=0;exitX=0;exitY=0;exitDx=0;exitDy=85;exitPerimeter=0;" parent="1" source="xmXilH9d-zfMQuUzyqhX-11" target="xmXilH9d-zfMQuUzyqhX-10" edge="1">
          <mxGeometry width="50" height="50" relative="1" as="geometry">
            <mxPoint x="280" y="320" as="sourcePoint" />
            <mxPoint x="610" y="210" as="targetPoint" />
          </mxGeometry>
        </mxCell>
        <mxCell id="_Qg0v8CMpAfSqBs8lRMV-2" value="navegador" style="edgeLabel;html=1;align=center;verticalAlign=middle;resizable=0;points=[];" vertex="1" connectable="0" parent="xmXilH9d-zfMQuUzyqhX-15">
          <mxGeometry x="-0.1401" y="-1" relative="1" as="geometry">
            <mxPoint as="offset" />
          </mxGeometry>
        </mxCell>
        <mxCell id="xmXilH9d-zfMQuUzyqhX-17" value="apache" style="shape=module;align=left;spacingLeft=20;align=center;verticalAlign=top;whiteSpace=wrap;html=1;" parent="1" vertex="1">
          <mxGeometry x="230" y="380" width="100" height="50" as="geometry" />
        </mxCell>
        <mxCell id="xmXilH9d-zfMQuUzyqhX-18" value="movil" style="shape=module;align=left;spacingLeft=20;align=center;verticalAlign=top;whiteSpace=wrap;html=1;" parent="1" vertex="1">
          <mxGeometry x="230" y="80" width="100" height="50" as="geometry" />
        </mxCell>
        <mxCell id="xmXilH9d-zfMQuUzyqhX-19" value="web" style="shape=module;align=left;spacingLeft=20;align=center;verticalAlign=top;whiteSpace=wrap;html=1;" parent="1" vertex="1">
          <mxGeometry x="230" y="150" width="100" height="50" as="geometry" />
        </mxCell>
        <mxCell id="xmXilH9d-zfMQuUzyqhX-22" value="Base de datos" style="verticalAlign=top;align=left;spacingTop=8;spacingLeft=2;spacingRight=12;shape=cube;size=10;direction=south;fontStyle=4;html=1;whiteSpace=wrap;" parent="1" vertex="1">
          <mxGeometry x="195" y="810" width="160" height="180" as="geometry" />
        </mxCell>
        <mxCell id="_Qg0v8CMpAfSqBs8lRMV-4" value="" style="endArrow=none;html=1;rounded=0;exitX=1.005;exitY=0.497;exitDx=0;exitDy=0;exitPerimeter=0;entryX=0;entryY=0;entryDx=0;entryDy=80;entryPerimeter=0;" edge="1" parent="1" source="xmXilH9d-zfMQuUzyqhX-11" target="_Qg0v8CMpAfSqBs8lRMV-15">
          <mxGeometry width="50" height="50" relative="1" as="geometry">
            <mxPoint x="570" y="300" as="sourcePoint" />
            <mxPoint x="629.9999999999998" y="536" as="targetPoint" />
          </mxGeometry>
        </mxCell>
        <mxCell id="_Qg0v8CMpAfSqBs8lRMV-5" value="http/https" style="edgeLabel;html=1;align=center;verticalAlign=middle;resizable=0;points=[];" vertex="1" connectable="0" parent="_Qg0v8CMpAfSqBs8lRMV-4">
          <mxGeometry x="0.2213" relative="1" as="geometry">
            <mxPoint y="-15" as="offset" />
          </mxGeometry>
        </mxCell>
        <mxCell id="_Qg0v8CMpAfSqBs8lRMV-15" value="servidor de aplicasiones" style="verticalAlign=top;align=left;spacingTop=8;spacingLeft=2;spacingRight=12;shape=cube;size=10;direction=south;fontStyle=4;html=1;whiteSpace=wrap;" vertex="1" parent="1">
          <mxGeometry x="190" y="580" width="170" height="170" as="geometry" />
        </mxCell>
        <mxCell id="_Qg0v8CMpAfSqBs8lRMV-16" value="php-fpm" style="shape=module;align=left;spacingLeft=20;align=center;verticalAlign=top;whiteSpace=wrap;html=1;" vertex="1" parent="1">
          <mxGeometry x="210" y="620" width="100" height="50" as="geometry" />
        </mxCell>
        <mxCell id="_Qg0v8CMpAfSqBs8lRMV-17" value="mod_php" style="shape=module;align=left;spacingLeft=20;align=center;verticalAlign=top;whiteSpace=wrap;html=1;" vertex="1" parent="1">
          <mxGeometry x="210" y="680" width="100" height="50" as="geometry" />
        </mxCell>
        <mxCell id="_Qg0v8CMpAfSqBs8lRMV-24" value="" style="endArrow=none;html=1;rounded=0;entryX=0;entryY=0.469;entryDx=0;entryDy=0;entryPerimeter=0;" edge="1" parent="1" target="xmXilH9d-zfMQuUzyqhX-22">
          <mxGeometry width="50" height="50" relative="1" as="geometry">
            <mxPoint x="280" y="750" as="sourcePoint" />
            <mxPoint x="610" y="940" as="targetPoint" />
          </mxGeometry>
        </mxCell>
        <mxCell id="_Qg0v8CMpAfSqBs8lRMV-25" value="PHP" style="edgeLabel;html=1;align=center;verticalAlign=middle;resizable=0;points=[];" vertex="1" connectable="0" parent="_Qg0v8CMpAfSqBs8lRMV-24">
          <mxGeometry x="-0.4952" y="-1" relative="1" as="geometry">
            <mxPoint x="1" y="15" as="offset" />
          </mxGeometry>
        </mxCell>
        <mxCell id="_Qg0v8CMpAfSqBs8lRMV-27" value="MYSQL" style="shape=module;align=left;spacingLeft=20;align=center;verticalAlign=top;whiteSpace=wrap;html=1;" vertex="1" parent="1">
          <mxGeometry x="210" y="850" width="115" height="50" as="geometry" />
        </mxCell>
        <mxCell id="_Qg0v8CMpAfSqBs8lRMV-29" value="POSTGRESQL" style="shape=module;align=left;spacingLeft=20;align=center;verticalAlign=top;whiteSpace=wrap;html=1;" vertex="1" parent="1">
          <mxGeometry x="207.5" y="910" width="120" height="50" as="geometry" />
        </mxCell>
      </root>
    </mxGraphModel>
  </diagram>
</mxfile>
